<svg xmlns="http://www.w3.org/2000/svg" width="320.649" height="93.476" viewBox="0 0 320.649 93.476"><g fill="#dcaf27"><path d="M134.535 81.353a1.451 1.451 0 01-1.44 1.44 2.726 2.726 0 00-1.641.5 3.857 3.857 0 00-1.239 1.306 8.866 8.866 0 00-1.105 2.277v5.158a1.48 1.48 0 01-1.474 1.44 1.451 1.451 0 01-1.44-1.44V81.353a1.423 1.423 0 011.44-1.407 1.452 1.452 0 011.474 1.407v.2a2.854 2.854 0 01.569-.536 6.088 6.088 0 013.417-1.071 1.4 1.4 0 011.439 1.407zM135.775 86.678a6.712 6.712 0 016.6-6.765 6.488 6.488 0 016.531 6.3v.134c0 .067 0 .2-.034.234a1.288 1.288 0 01-1.407 1.072h-8.574a3.28 3.28 0 00.938 1.775 4.15 4.15 0 002.612 1.206 4.579 4.579 0 002.813-.67 1.537 1.537 0 012.043-.067 1.228 1.228 0 010 1.775 6.9 6.9 0 01-4.856 1.775 6.725 6.725 0 01-6.666-6.769zm2.981-1.306h7.67a4.453 4.453 0 00-4.019-2.88 3.757 3.757 0 00-3.651 2.88zM164.678 86.711v5.325a1.436 1.436 0 01-2.847.268 6.142 6.142 0 01-3.617 1.172 6.26 6.26 0 01-4.588-1.976 6.858 6.858 0 01-1.842-4.754 6.74 6.74 0 011.842-4.756 6.112 6.112 0 018.205-.837 1.5 1.5 0 011.407-1.206 1.458 1.458 0 011.44 1.474zm-2.847 0a3.868 3.868 0 00-1.072-2.78 3.3 3.3 0 00-2.512-1.105 3.2 3.2 0 00-2.512 1.105 4.24 4.24 0 000 5.56 3.465 3.465 0 002.512 1.072 3.392 3.392 0 002.512-1.072 4.076 4.076 0 001.072-2.78zM172.046 74.487a1.494 1.494 0 011.507 1.474V91.97a1.4905 1.4905 0 01-2.981 0V75.994a1.516 1.516 0 011.474-1.507zM184.304 86.678a6.712 6.712 0 016.6-6.765 6.488 6.488 0 016.531 6.3v.134c0 .067 0 .2-.034.234a1.288 1.288 0 01-1.407 1.072h-8.607a3.28 3.28 0 00.938 1.775 4.151 4.151 0 002.612 1.206 4.579 4.579 0 002.813-.67 1.537 1.537 0 012.043-.067 1.228 1.228 0 010 1.775 6.9 6.9 0 01-4.856 1.775 6.7 6.7 0 01-6.633-6.769zm2.947-1.306h7.67a4.452 4.452 0 00-4.019-2.88 3.756 3.756 0 00-3.651 2.88zM201.083 89.592a1.415 1.415 0 012.043-.2 5.072 5.072 0 002.981 1.206 3.635 3.635 0 001.842-.5 1.217 1.217 0 00.5-.8.519.519 0 00-.067-.268.9.9 0 00-.368-.335 6.568 6.568 0 00-2.177-.77h-.034a10.072 10.072 0 01-2.344-.7 4.7 4.7 0 01-1.875-1.574 3.266 3.266 0 01-.469-1.708 3.785 3.785 0 011.608-2.981 5.873 5.873 0 013.316-1 7.106 7.106 0 014.052 1.474 1.524 1.524 0 01.435 2.01 1.444 1.444 0 01-2.01.368 4.7 4.7 0 00-2.478-1 2.66 2.66 0 00-1.641.5.791.791 0 00-.435.636c0 .1 0 .134.067.2a.6.6 0 00.3.268 5.413 5.413 0 001.976.636l.034.033h.033a9.983 9.983 0 012.512.77 4.036 4.036 0 011.916 1.589 3.4 3.4 0 01.5 1.775 3.911 3.911 0 01-1.708 3.148 6.236 6.236 0 01-3.517 1.072 7.866 7.866 0 01-4.823-1.876 1.449 1.449 0 01-.169-1.973zM221.58 81.42a1.516 1.516 0 01-1.507 1.474h-.67v7.569a1.473 1.473 0 011.474 1.507 1.445 1.445 0 01-1.474 1.474 3.023 3.023 0 01-3.014-3.014v-7.569h-.8a1.465 1.465 0 01-1.474-1.474 1.445 1.445 0 011.474-1.474h.77v-3.919a1.473 1.473 0 011.507-1.474 1.445 1.445 0 011.474 1.474v3.919h.67a1.538 1.538 0 011.57 1.507zM236.986 86.711v5.325a1.436 1.436 0 01-2.847.268 6.141 6.141 0 01-3.617 1.172 6.261 6.261 0 01-4.588-1.976 6.858 6.858 0 01-1.842-4.754 6.74 6.74 0 011.842-4.756 6.112 6.112 0 018.205-.837 1.5 1.5 0 011.407-1.206 1.458 1.458 0 011.44 1.474zm-2.88 0a3.868 3.868 0 00-1.072-2.78 3.3 3.3 0 00-2.512-1.105 3.2 3.2 0 00-2.512 1.105 4.24 4.24 0 000 5.56 3.465 3.465 0 002.512 1.072 3.392 3.392 0 002.512-1.072 3.926 3.926 0 001.072-2.78zM248.373 81.42a1.516 1.516 0 01-1.507 1.474h-.67v7.569a1.473 1.473 0 011.474 1.507 1.445 1.445 0 01-1.474 1.474 3.023 3.023 0 01-3.014-3.014v-7.569h-.77a1.465 1.465 0 01-1.474-1.474 1.445 1.445 0 011.474-1.474h.77v-3.919a1.473 1.473 0 011.507-1.474 1.445 1.445 0 011.474 1.474v3.919h.67a1.53 1.53 0 011.54 1.507zM251.12 86.678a6.712 6.712 0 016.6-6.765 6.487 6.487 0 016.531 6.3v.134c0 .067 0 .2-.033.234a1.288 1.288 0 01-1.407 1.072h-8.607a3.281 3.281 0 00.938 1.775 4.15 4.15 0 002.612 1.206 4.579 4.579 0 002.813-.67 1.537 1.537 0 012.043-.067 1.229 1.229 0 010 1.775 6.9 6.9 0 01-4.856 1.775 6.7 6.7 0 01-6.634-6.769zm2.947-1.306h7.67a4.453 4.453 0 00-4.019-2.88 3.824 3.824 0 00-3.651 2.88z"/></g><path d="M316.797 90.596h-33.592a3.953 3.953 0 010-7.9h29.711V25.555l-29.678-17.08-23.243 11.688a3.791 3.791 0 01-5.158-1.809 4.045 4.045 0 011.775-5.325L281.664.404a3.778 3.778 0 013.584.1l33.424 19.19a3.979 3.979 0 011.976 3.483v63.434a3.925 3.925 0 01-3.852 3.986" fill="#dcaf27"/><path d="M1.507 63.435A3.887 3.887 0 010 60.353a3.7 3.7 0 013.718-3.751 3.829 3.829 0 012.277.737 14.91 14.91 0 009.21 3.316c3.249 0 5.191-1.306 5.191-3.483v-.1c0-2.076-1.239-3.115-7.268-4.722C5.86 50.474 1.171 48.398 1.171 41.063v-.1C1.172 34.23 6.43 29.809 13.8 29.809a20.433 20.433 0 0111.421 3.282 3.741 3.741 0 011.74 3.218 3.743 3.743 0 01-5.727 3.182 14.765 14.765 0 00-7.569-2.482c-3.048 0-4.622 1.44-4.622 3.215v.1c0 2.445 1.541 3.215 7.77 4.856 7.3 1.943 11.454 4.655 11.454 11.119v.1c0 7.335-5.459 11.488-13.229 11.488a23.2 23.2 0 01-13.531-4.454M41.53 67.353V30.311h23.946a3.617 3.617 0 013.55 3.651 3.559 3.559 0 01-3.55 3.584H49.401v7.536h13.765a3.617 3.617 0 013.55 3.651 3.559 3.559 0 01-3.55 3.584H49.401v7.77h16.344a3.617 3.617 0 013.55 3.651 3.559 3.559 0 01-3.55 3.584H41.53zM80.782 48.933v-.1c0-10.517 7.737-19.158 18.789-19.158 5.426 0 9.076 1.474 12.057 3.751a4.081 4.081 0 011.541 3.215 3.91 3.91 0 01-3.919 3.952 4.17 4.17 0 01-2.378-.8 11.551 11.551 0 00-7.368-2.646c-6.1 0-10.449 5.191-10.449 11.521v.1c0 6.363 4.287 11.622 10.449 11.622a11.479 11.479 0 007.837-2.914 3.592 3.592 0 012.378-.9 3.782 3.782 0 013.718 3.751 3.828 3.828 0 01-1.34 2.914c-3.249 2.914-7.067 4.655-12.827 4.655-10.583.1-18.487-8.339-18.487-18.956M126.196 51.476V34.062a3.954 3.954 0 117.9 0v17.181c0 6.028 2.947 9.143 7.77 9.143 4.856 0 7.77-3.014 7.77-8.875V34.062a3.954 3.954 0 117.9 0V51.21c0 11.22-6.129 16.712-15.808 16.712-9.646 0-15.54-5.56-15.54-16.444M172.046 34.196a3.99 3.99 0 013.952-4.086h.837a4.839 4.839 0 014.119 2.378l15.306 20.631v-19.09a3.92 3.92 0 117.837 0v29.473a3.99 3.99 0 01-3.952 4.086h-.3a4.839 4.839 0 01-4.119-2.378l-15.875-21.368v19.827a3.92 3.92 0 11-7.837 0V34.196zM233.135 59.985c6.5 0 10.885-4.488 10.885-11.052v-.1c0-6.564-4.387-11.153-10.885-11.153h-6.129v22.305zm-14.066 7.368V30.311h14.066c11.32 0 19.157 7.971 19.157 18.42v.1c0 10.416-7.837 18.521-19.157 18.521zM294.157 48.933v-.1c0-6.33-4.521-11.622-10.918-11.622s-10.818 5.191-10.818 11.521v.1c0 6.363 4.521 11.622 10.918 11.622 6.363 0 10.818-5.158 10.818-11.521m-30.042 0v-.1a18.916 18.916 0 0119.224-19.158 18.721 18.721 0 0119.124 19.023v.1a18.916 18.916 0 01-19.224 19.157 18.681 18.681 0 01-19.124-19.022" fill="#495f6b"/></svg>